<?xml version="1.0"?>
<svg width="792" height="266.25" xmlns="http://www.w3.org/2000/svg" xmlns:svg="http://www.w3.org/2000/svg" enable-background="new 0 0 792 266.25" version="1.1" xml:space="preserve">
 <style type="text/css">.st0{fill:#4251B0;}
	.st1{fill:#FA2921;}
	.st2{fill:#ED79B5;}
	.st3{fill:#FFB400;}
	.st4{fill:#1E83F7;}
	.st5{fill:#18C249;}</style>
 <g class="layer">
  <title>Layer 1</title>
  <g id="svg_1" transform="matrix(1 0 0 1 0 0)"/>
  <g id="svg_8">
   <path class="st1" d="m114.82,96.21c11.92,10.55 21.52,21.86 27.7,32.52c10.62,-18.99 17.71,-41.55 17.8,-55.92c0,-0.1 0,-0.19 0,-0.28c0,-21.26 -21.21,-29.54 -39.48,-29.54s-39.48,8.28 -39.48,29.54c0,0.29 0,0.68 0,1.15c10.18,4.52 22.25,12.61 33.46,22.53z" id="svg_9"/>
   <path class="st2" d="m49.8,154.19c7.45,-8.29 18.88,-17.27 31.77,-24.86c13.72,-8.07 27.44,-13.71 39.49,-16.3c-14.78,-15.96 -34.04,-29.68 -47.68,-34.21c-0.1,-0.03 -0.18,-0.06 -0.27,-0.09c-20.22,-6.57 -34.65,11.05 -40.3,28.42s-4.33,40.11 15.89,46.68c0.29,0.1 0.65,0.22 1.1,0.36z" id="svg_10"/>
   <path class="st3" d="m209.07,106.86c-5.65,-17.38 -20.07,-34.99 -40.3,-28.42c-0.28,0.09 -0.65,0.21 -1.09,0.35c-1.16,11.08 -5.12,25.07 -11.09,38.79c-6.35,14.6 -14.14,27.23 -22.36,36.39c21.34,4.23 44.99,4 58.68,-0.35c0.1,-0.03 0.19,-0.06 0.27,-0.09c20.22,-6.56 21.53,-29.29 15.89,-46.67z" id="svg_11"/>
   <path class="st4" d="m102.8,171.18c-3.44,-15.54 -4.56,-30.34 -3.3,-42.59c-19.75,9.12 -38.75,23.2 -47.27,34.78c-0.06,0.08 -0.11,0.16 -0.16,0.23c-12.5,17.2 -0.2,36.37 14.58,47.11s36.81,16.51 49.31,-0.69c0.17,-0.24 0.4,-0.55 0.68,-0.93c-5.59,-9.65 -10.6,-23.3 -13.84,-37.91z" id="svg_12"/>
   <path class="st5" d="m189.48,162.49c-10.9,2.33 -25.42,2.88 -40.32,1.44c-15.84,-1.53 -30.26,-5.03 -41.52,-10.02c2.57,21.6 10.09,44.02 18.47,55.7c0.06,0.08 0.11,0.16 0.16,0.23c12.5,17.2 34.52,11.43 49.31,0.69c14.78,-10.74 27.08,-29.9 14.58,-47.11c-0.17,-0.24 -0.4,-0.56 -0.68,-0.93z" id="svg_13"/>
  </g>
  <text fill="#003f7f" font-family="Georgia" font-size="27" font-weight="300" id="svg_15" stroke="#003f7f" stroke-width="0.5" text-anchor="middle" transform="matrix(3.5 0 0 3.5 -500 -250)" x="272.74" xml:space="preserve" y="120.47">rPictures</text>
 </g>
</svg>